<?xml version="1.0" encoding="UTF-8"?>
<!DOCTYPE svg PUBLIC "-//W3C//DTD SVG 1.1//EN" "http://www.w3.org/Graphics/SVG/1.1/DTD/svg11.dtd">
<!-- Creator: CorelDRAW (Evaluation Version) -->
<svg xmlns="http://www.w3.org/2000/svg" xml:space="preserve" width="134.898mm" height="31.8564mm" version="1.1" style="shape-rendering:geometricPrecision; text-rendering:geometricPrecision; image-rendering:optimizeQuality; fill-rule:evenodd; clip-rule:evenodd"
viewBox="0 0 12159.32 2871.45"
 xmlns:xlink="http://www.w3.org/1999/xlink"
 xmlns:xodm="http://www.corel.com/coreldraw/odm/2003">
 <defs>
  <style type="text/css">
   <![CDATA[
    .str1 {stroke:#2D43B4;stroke-width:135.21;stroke-miterlimit:2.61313}
    .str0 {stroke:#FA7319;stroke-width:135.21;stroke-miterlimit:2.61313}
    .str2 {stroke:#373435;stroke-width:18.03;stroke-miterlimit:22.9256}
    .str3 {stroke:#2D43B4;stroke-width:18.03;stroke-miterlimit:22.9256}
    .fil3 {fill:none}
    .fil2 {fill:#57B952}
    .fil1 {fill:#2D43B4}
    .fil6 {fill:#344ECC}
    .fil4 {fill:#FA7319}
    .fil0 {fill:#2D43B4;fill-rule:nonzero}
    .fil5 {fill:url(#id0)}
   ]]>
  </style>
  <linearGradient id="id0" gradientUnits="userSpaceOnUse" x1="2318.6" y1="1442.82" x2="2870.46" y2="1434.63">
   <stop offset="0" style="stop-opacity:1; stop-color:#57B952"/>
   <stop offset="1" style="stop-opacity:1; stop-color:#FEFEFE"/>
  </linearGradient>
 </defs>
 <g id="Layer_x0020_1">
  <metadata id="CorelCorpID_0Corel-Layer"/>
  <path class="fil0" d="M4243.44 2723.59l0 -55.33c6.4,5.62 14.03,10.58 22.8,15.07 8.87,4.48 18.22,8.3 27.95,11.35 9.82,3.06 19.65,5.44 29.47,7.16 9.92,1.62 19.08,2.48 27.37,2.48 28.91,0 50.47,-5.35 64.77,-16.12 14.21,-10.69 21.37,-26.14 21.37,-46.18 0,-10.87 -2.39,-20.22 -7.16,-28.23 -4.77,-8.01 -11.35,-15.36 -19.65,-21.94 -8.39,-6.68 -18.32,-12.98 -29.76,-19.08 -11.55,-6.01 -23.85,-12.4 -37.11,-19.08 -13.93,-7.06 -27,-14.3 -39.11,-21.56 -12.11,-7.25 -22.61,-15.26 -31.58,-24.04 -8.97,-8.77 -15.93,-18.69 -21.08,-29.75 -5.15,-11.07 -7.72,-24.04 -7.72,-38.92 0,-18.32 4,-34.15 12.02,-47.7 8.01,-13.55 18.6,-24.61 31.58,-33.39 13.07,-8.78 27.95,-15.26 44.65,-19.56 16.6,-4.29 33.68,-6.48 50.95,-6.48 39.49,0 68.3,4.77 86.42,14.3l0 52.85c-23.65,-16.4 -54.09,-24.61 -91.1,-24.61 -10.3,0 -20.51,1.05 -30.81,3.15 -10.21,2.19 -19.37,5.72 -27.38,10.49 -8.01,4.87 -14.49,11.16 -19.55,18.79 -5.06,7.63 -7.54,16.88 -7.54,27.95 0,10.2 1.91,19.08 5.72,26.52 3.81,7.45 9.45,14.21 16.88,20.42 7.45,6.1 16.6,12.11 27.28,17.84 10.68,5.81 23.08,12.11 37.01,18.98 14.4,7.16 27.95,14.59 40.83,22.42 12.87,7.82 24.13,16.5 33.77,25.95 9.73,9.54 17.36,20.03 23.08,31.58 5.72,11.54 8.49,24.8 8.49,39.68 0,19.75 -3.81,36.54 -11.54,50.18 -7.73,13.74 -18.23,24.9 -31.3,33.39 -13.16,8.59 -28.33,14.79 -45.4,18.6 -17.17,3.81 -35.2,5.72 -54.28,5.72 -6.3,0 -14.12,-0.48 -23.47,-1.53 -9.25,-1.05 -18.78,-2.48 -28.52,-4.48 -9.64,-1.91 -18.79,-4.39 -27.47,-7.25 -8.68,-2.87 -15.64,-6.11 -20.89,-9.64zm546.7 -115.43l-202.04 0c0.77,31.86 9.35,56.47 25.76,73.84 16.4,17.26 38.92,25.94 67.63,25.94 32.24,0 61.82,-10.59 88.91,-31.86l0 43.02c-25.18,18.32 -58.48,27.38 -99.78,27.38 -40.45,0 -72.22,-12.97 -95.3,-38.92 -23.18,-26.04 -34.72,-62.58 -34.72,-109.71 0,-44.55 12.68,-80.8 37.87,-108.84 25.28,-28.05 56.67,-42.07 94.06,-42.07 37.5,0 66.4,12.11 86.91,36.34 20.51,24.13 30.71,57.81 30.71,100.83l0 24.04zm-46.93 -38.82c-0.2,-26.43 -6.59,-47.03 -19.08,-61.82 -12.59,-14.69 -30.05,-22.04 -52.47,-22.04 -21.56,0 -39.97,7.73 -55.04,23.18 -15.07,15.45 -24.43,35.68 -27.95,60.67l154.54 0zm321.19 170.47l-45.88 0 0 -44.74 -1.05 0c-19.94,34.34 -49.31,51.42 -88.05,51.42 -28.52,0 -50.85,-7.54 -66.97,-22.61 -16.12,-15.08 -24.13,-35.11 -24.13,-60.1 0,-53.42 31.48,-84.61 94.44,-93.29l85.77 -12.02c0,-48.65 -19.66,-72.98 -58.96,-72.98 -34.43,0 -65.53,11.74 -93.29,35.2l0 -46.93c28.14,-17.94 60.48,-26.81 97.2,-26.81 67.25,0 100.93,35.58 100.93,106.74l0 186.12zm-45.88 -144.81l-68.97 9.54c-21.27,2.96 -37.3,8.2 -48.08,15.84 -10.78,7.54 -16.22,20.89 -16.22,40.07 0,13.93 4.96,25.37 14.97,34.24 9.92,8.87 23.18,13.26 39.79,13.26 22.7,0 41.49,-8.01 56.28,-23.85 14.88,-15.93 22.23,-36.15 22.23,-60.57l0 -28.52zm538.59 144.81l-45.79 0 0 -164.37c0,-31.67 -4.97,-54.56 -14.69,-68.68 -9.82,-14.21 -26.23,-21.27 -49.32,-21.27 -19.55,0 -36.24,8.97 -49.89,26.81 -13.73,17.94 -20.6,39.3 -20.6,64.29l0 163.22 -45.79 0 0 -169.9c0,-56.28 -21.75,-84.42 -65.16,-84.42 -20.13,0 -36.63,8.4 -49.7,25.28 -13.06,16.88 -19.55,38.82 -19.55,65.82l0 163.22 -45.89 0 0 -286.18 45.89 0 0 45.31 1.14 0c20.23,-34.73 49.89,-51.99 88.81,-51.99 19.55,0 36.63,5.44 51.13,16.31 14.6,10.88 24.52,25.18 29.96,42.93 21.17,-39.5 52.85,-59.24 95,-59.24 62.96,0 94.45,38.82 94.45,116.48l0 176.38zm132.5 0l-45.89 0 0 -423.65 45.89 0 0 423.65zm322.71 -131.65l-202.04 0c0.77,31.86 9.35,56.47 25.76,73.84 16.4,17.26 38.92,25.94 67.63,25.94 32.24,0 61.82,-10.59 88.91,-31.86l0 43.02c-25.18,18.32 -58.48,27.38 -99.78,27.38 -40.45,0 -72.22,-12.97 -95.3,-38.92 -23.18,-26.04 -34.72,-62.58 -34.72,-109.71 0,-44.55 12.68,-80.8 37.87,-108.84 25.28,-28.05 56.67,-42.07 94.06,-42.07 37.5,0 66.4,12.11 86.91,36.34 20.51,24.13 30.71,57.81 30.71,100.83l0 24.04zm-46.93 -38.82c-0.2,-26.43 -6.59,-47.03 -19.08,-61.82 -12.59,-14.69 -30.05,-22.04 -52.47,-22.04 -21.56,0 -39.97,7.73 -55.04,23.18 -15.07,15.45 -24.43,35.68 -27.95,60.67l154.54 0zm99.02 160.16l0 -49.22c24.9,18.42 52.47,27.66 82.42,27.66 40.26,0 60.38,-13.45 60.38,-40.26 0,-7.63 -1.72,-14.12 -5.16,-19.36 -3.52,-5.35 -8.1,-10.01 -14.02,-14.12 -5.82,-4.1 -12.78,-7.81 -20.7,-11.06 -7.91,-3.24 -16.4,-6.68 -25.56,-10.21 -12.69,-5.06 -23.75,-10.1 -33.39,-15.26 -9.55,-5.06 -17.56,-10.87 -24.04,-17.26 -6.39,-6.49 -11.26,-13.74 -14.5,-21.95 -3.24,-8.2 -4.87,-17.84 -4.87,-28.81 0,-13.45 3.06,-25.27 9.16,-35.68 6.2,-10.3 14.4,-18.98 24.62,-25.94 10.3,-6.97 21.94,-12.31 35.1,-15.84 13.07,-3.53 26.72,-5.25 40.64,-5.25 24.8,0 46.93,4.29 66.49,12.78l0 46.46c-20.98,-13.84 -45.21,-20.7 -72.59,-20.7 -8.59,0 -16.31,0.96 -23.28,2.96 -6.87,1.91 -12.78,4.68 -17.74,8.21 -4.87,3.52 -8.68,7.81 -11.45,12.68 -2.68,4.96 -4.01,10.4 -4.01,16.4 0,7.45 1.33,13.65 4.01,18.7 2.77,5.06 6.68,9.54 11.93,13.45 5.15,3.91 11.54,7.44 18.98,10.59 7.44,3.15 15.93,6.58 25.46,10.3 12.59,4.86 24.04,9.82 34.06,14.97 10.01,5.16 18.6,10.88 25.75,17.36 7.06,6.39 12.49,13.84 16.31,22.23 3.81,8.4 5.72,18.32 5.72,29.86 0,14.21 -3.15,26.52 -9.35,36.91 -6.3,10.4 -14.6,19.08 -25,25.95 -10.49,6.97 -22.52,12.02 -36.06,15.45 -13.64,3.34 -27.85,4.97 -42.82,4.97 -29.38,0 -54.95,-5.63 -76.51,-16.98zm242.87 0l0 -49.22c24.9,18.42 52.47,27.66 82.42,27.66 40.26,0 60.38,-13.45 60.38,-40.26 0,-7.63 -1.72,-14.12 -5.16,-19.36 -3.52,-5.35 -8.1,-10.01 -14.02,-14.12 -5.82,-4.1 -12.78,-7.81 -20.7,-11.06 -7.91,-3.24 -16.4,-6.68 -25.56,-10.21 -12.69,-5.06 -23.75,-10.1 -33.39,-15.26 -9.55,-5.06 -17.56,-10.87 -24.04,-17.26 -6.39,-6.49 -11.26,-13.74 -14.5,-21.95 -3.24,-8.2 -4.87,-17.84 -4.87,-28.81 0,-13.45 3.06,-25.27 9.16,-35.68 6.2,-10.3 14.4,-18.98 24.62,-25.94 10.3,-6.97 21.94,-12.31 35.1,-15.84 13.07,-3.53 26.72,-5.25 40.64,-5.25 24.8,0 46.93,4.29 66.49,12.78l0 46.46c-20.98,-13.84 -45.21,-20.7 -72.59,-20.7 -8.59,0 -16.31,0.96 -23.28,2.96 -6.87,1.91 -12.78,4.68 -17.74,8.21 -4.87,3.52 -8.68,7.81 -11.45,12.68 -2.68,4.96 -4.01,10.4 -4.01,16.4 0,7.45 1.33,13.65 4.01,18.7 2.77,5.06 6.68,9.54 11.93,13.45 5.15,3.91 11.54,7.44 18.98,10.59 7.44,3.15 15.93,6.58 25.46,10.3 12.59,4.86 24.04,9.82 34.06,14.97 10.01,5.16 18.6,10.88 25.75,17.36 7.06,6.39 12.49,13.84 16.31,22.23 3.81,8.4 5.72,18.32 5.72,29.86 0,14.21 -3.15,26.52 -9.35,36.91 -6.3,10.4 -14.6,19.08 -25,25.95 -10.49,6.97 -22.52,12.02 -36.06,15.45 -13.64,3.34 -27.85,4.97 -42.82,4.97 -29.38,0 -54.95,-5.63 -76.51,-16.98zm695.91 -6.49c-29.57,15.65 -66.49,23.47 -110.66,23.47 -57.05,0 -102.64,-18.32 -136.89,-55.05 -34.34,-36.72 -51.51,-84.9 -51.51,-144.52 0,-64.01 19.37,-115.81 57.9,-155.31 38.54,-39.59 87.48,-59.33 146.72,-59.33 37.97,0 69.45,5.53 94.45,16.5l0 50.08c-28.72,-16.03 -60.39,-24.04 -95.01,-24.04 -45.98,0 -83.28,15.36 -111.9,46.07 -28.62,30.72 -42.93,71.84 -42.93,123.25 0,48.85 13.36,87.76 40.07,116.66 26.81,29 61.82,43.5 105.32,43.5 40.17,0 75.08,-8.97 104.46,-26.81l0 45.5zm195.08 23.47c-42.27,0 -76.03,-13.36 -101.31,-40.07 -25.18,-26.71 -37.87,-62.19 -37.87,-106.36 0,-48.08 13.16,-85.57 39.4,-112.66 26.33,-27 61.82,-40.44 106.55,-40.44 42.64,0 75.93,13.07 99.88,39.4 23.94,26.23 35.87,62.67 35.87,109.22 0,45.7 -12.88,82.23 -38.63,109.71 -25.85,27.47 -60.48,41.21 -103.88,41.21zm3.34 -261c-29.38,0 -52.66,10.02 -69.83,30.05 -17.17,20.03 -25.75,47.6 -25.75,82.9 0,33.86 8.68,60.57 26.04,80.13 17.36,19.55 40.54,29.38 69.54,29.38 29.66,0 52.47,-9.64 68.4,-28.81 15.94,-19.17 23.85,-46.46 23.85,-81.84 0,-35.78 -7.91,-63.34 -23.85,-82.71 -15.93,-19.46 -38.73,-29.1 -68.4,-29.1zm618.82 254.32l-45.79 0 0 -164.37c0,-31.67 -4.97,-54.56 -14.69,-68.68 -9.82,-14.21 -26.23,-21.27 -49.32,-21.27 -19.55,0 -36.24,8.97 -49.89,26.81 -13.73,17.94 -20.6,39.3 -20.6,64.29l0 163.22 -45.79 0 0 -169.9c0,-56.28 -21.75,-84.42 -65.16,-84.42 -20.13,0 -36.63,8.4 -49.7,25.28 -13.06,16.88 -19.55,38.82 -19.55,65.82l0 163.22 -45.89 0 0 -286.18 45.89 0 0 45.31 1.14 0c20.23,-34.73 49.89,-51.99 88.81,-51.99 19.55,0 36.63,5.44 51.13,16.31 14.6,10.88 24.52,25.18 29.96,42.93 21.17,-39.5 52.85,-59.24 95,-59.24 62.96,0 94.45,38.82 94.45,116.48l0 176.38zm133.65 -41.4l-1.14 0 0 173.05 -45.89 0 0 -417.82 45.89 0 0 50.27 1.14 0c22.52,-37.97 55.52,-56.95 98.93,-56.95 36.82,0 65.63,12.78 86.32,38.44 20.7,25.56 31.01,59.91 31.01,102.93 0,47.89 -11.64,86.23 -34.91,115.04 -23.28,28.72 -55.15,43.12 -95.59,43.12 -37.11,0 -65.63,-16.03 -85.76,-48.08zm-1.14 -115.43l0 39.98c0,23.65 7.63,43.78 23.08,60.28 15.36,16.5 34.82,24.71 58.48,24.71 27.75,0 49.5,-10.59 65.24,-31.86 15.75,-21.27 23.66,-50.75 23.66,-88.61 0,-31.86 -7.35,-56.76 -22.13,-74.89 -14.69,-18.03 -34.63,-27.1 -59.72,-27.1 -26.72,0 -48.08,9.26 -64.29,27.76 -16.22,18.6 -24.33,41.78 -24.33,69.73zm336.46 156.83l-45.89 0 0 -423.65 45.89 0 0 423.65zm116.19 -358.87c-8.11,0 -15.17,-2.77 -20.89,-8.39 -5.81,-5.53 -8.68,-12.59 -8.68,-21.18 0,-8.58 2.87,-15.74 8.68,-21.36 5.72,-5.72 12.78,-8.59 20.89,-8.59 8.39,0 15.55,2.87 21.46,8.59 5.82,5.62 8.78,12.78 8.78,21.36 0,8.2 -2.96,15.17 -8.78,20.89 -5.91,5.82 -13.07,8.68 -21.46,8.68zm22.42 358.87l-45.89 0 0 -286.18 45.89 0 0 286.18zm297.62 0l-45.88 0 0 -44.74 -1.05 0c-19.94,34.34 -49.31,51.42 -88.05,51.42 -28.52,0 -50.85,-7.54 -66.97,-22.61 -16.12,-15.08 -24.13,-35.11 -24.13,-60.1 0,-53.42 31.48,-84.61 94.44,-93.29l85.77 -12.02c0,-48.65 -19.66,-72.98 -58.96,-72.98 -34.43,0 -65.53,11.74 -93.29,35.2l0 -46.93c28.14,-17.94 60.48,-26.81 97.2,-26.81 67.25,0 100.93,35.58 100.93,106.74l0 186.12zm-45.88 -144.81l-68.97 9.54c-21.27,2.96 -37.3,8.2 -48.08,15.84 -10.78,7.54 -16.22,20.89 -16.22,40.07 0,13.93 4.96,25.37 14.97,34.24 9.92,8.87 23.18,13.26 39.79,13.26 22.7,0 41.49,-8.01 56.28,-23.85 14.88,-15.93 22.23,-36.15 22.23,-60.57l0 -28.52zm369.83 144.81l-45.88 0 0 -163.22c0,-60.76 -22.14,-91.1 -66.49,-91.1 -22.89,0 -41.88,8.59 -56.85,25.85 -15.08,17.27 -22.52,39.02 -22.52,65.25l0 163.22 -45.89 0 0 -286.18 45.89 0 0 47.5 1.14 0c21.56,-36.15 52.85,-54.18 93.87,-54.18 31.29,0 55.23,10.1 71.83,30.33 16.59,20.13 24.9,49.41 24.9,87.57l0 174.96zm281.41 -13.16c-21.94,13.26 -48.08,19.84 -78.22,19.84 -40.83,0 -73.74,-13.26 -98.83,-39.78 -25,-26.52 -37.59,-60.96 -37.59,-103.32 0,-47.12 13.55,-85 40.54,-113.61 27,-28.53 63.05,-42.83 108.17,-42.83 25.18,0 47.31,4.58 66.49,13.93l0 46.93c-21.27,-14.88 -43.97,-22.33 -68.2,-22.33 -29.2,0 -53.24,10.49 -71.93,31.48 -18.69,20.88 -28.14,48.46 -28.14,82.51 0,33.58 8.87,60 26.42,79.37 17.65,19.37 41.21,29.1 70.88,29.1 24.99,0 48.46,-8.3 70.4,-24.9l0 43.6zm299.25 -118.49l-202.04 0c0.77,31.86 9.35,56.47 25.76,73.84 16.4,17.26 38.92,25.94 67.63,25.94 32.24,0 61.82,-10.59 88.91,-31.86l0 43.02c-25.18,18.32 -58.48,27.38 -99.78,27.38 -40.45,0 -72.22,-12.97 -95.3,-38.92 -23.18,-26.04 -34.72,-62.58 -34.72,-109.71 0,-44.55 12.68,-80.8 37.87,-108.84 25.28,-28.05 56.67,-42.07 94.06,-42.07 37.5,0 66.4,12.11 86.91,36.34 20.51,24.13 30.71,57.81 30.71,100.83l0 24.04zm-46.93 -38.82c-0.2,-26.43 -6.59,-47.03 -19.08,-61.82 -12.59,-14.69 -30.05,-22.04 -52.47,-22.04 -21.56,0 -39.97,7.73 -55.04,23.18 -15.07,15.45 -24.43,35.68 -27.95,60.67l154.54 0zm260.51 154.25l0 -55.33c6.4,5.62 14.03,10.58 22.8,15.07 8.87,4.48 18.22,8.3 27.95,11.35 9.82,3.06 19.65,5.44 29.47,7.16 9.92,1.62 19.08,2.48 27.37,2.48 28.91,0 50.47,-5.35 64.77,-16.12 14.21,-10.69 21.37,-26.14 21.37,-46.18 0,-10.87 -2.39,-20.22 -7.16,-28.23 -4.77,-8.01 -11.35,-15.36 -19.65,-21.94 -8.39,-6.68 -18.32,-12.98 -29.76,-19.08 -11.55,-6.01 -23.85,-12.4 -37.11,-19.08 -13.93,-7.06 -27,-14.3 -39.11,-21.56 -12.11,-7.25 -22.61,-15.26 -31.58,-24.04 -8.97,-8.77 -15.93,-18.69 -21.08,-29.75 -5.15,-11.07 -7.72,-24.04 -7.72,-38.92 0,-18.32 4,-34.15 12.02,-47.7 8.01,-13.55 18.6,-24.61 31.58,-33.39 13.07,-8.78 27.95,-15.26 44.65,-19.56 16.6,-4.29 33.68,-6.48 50.95,-6.48 39.49,0 68.3,4.77 86.42,14.3l0 52.85c-23.65,-16.4 -54.09,-24.61 -91.1,-24.61 -10.3,0 -20.51,1.05 -30.81,3.15 -10.21,2.19 -19.37,5.72 -27.38,10.49 -8.01,4.87 -14.49,11.16 -19.55,18.79 -5.06,7.63 -7.54,16.88 -7.54,27.95 0,10.2 1.91,19.08 5.72,26.52 3.81,7.45 9.45,14.21 16.88,20.42 7.45,6.1 16.6,12.11 27.28,17.84 10.68,5.81 23.08,12.11 37.01,18.98 14.4,7.16 27.95,14.59 40.83,22.42 12.87,7.82 24.13,16.5 33.77,25.95 9.73,9.54 17.36,20.03 23.08,31.58 5.72,11.54 8.49,24.8 8.49,39.68 0,19.75 -3.81,36.54 -11.54,50.18 -7.73,13.74 -18.23,24.9 -31.3,33.39 -13.16,8.59 -28.33,14.79 -45.4,18.6 -17.17,3.81 -35.2,5.72 -54.28,5.72 -6.3,0 -14.12,-0.48 -23.47,-1.53 -9.25,-1.05 -18.78,-2.48 -28.52,-4.48 -9.64,-1.91 -18.79,-4.39 -27.47,-7.25 -8.68,-2.87 -15.64,-6.11 -20.89,-9.64zm436.34 22.89c-42.27,0 -76.03,-13.36 -101.31,-40.07 -25.18,-26.71 -37.87,-62.19 -37.87,-106.36 0,-48.08 13.16,-85.57 39.4,-112.66 26.33,-27 61.82,-40.44 106.55,-40.44 42.64,0 75.93,13.07 99.88,39.4 23.94,26.23 35.87,62.67 35.87,109.22 0,45.7 -12.88,82.23 -38.63,109.71 -25.85,27.47 -60.48,41.21 -103.88,41.21zm3.34 -261c-29.38,0 -52.66,10.02 -69.83,30.05 -17.17,20.03 -25.75,47.6 -25.75,82.9 0,33.86 8.68,60.57 26.04,80.13 17.36,19.55 40.54,29.38 69.54,29.38 29.66,0 52.47,-9.64 68.4,-28.81 15.94,-19.17 23.85,-46.46 23.85,-81.84 0,-35.78 -7.91,-63.34 -23.85,-82.71 -15.93,-19.46 -38.73,-29.1 -68.4,-29.1zm258.32 254.32l-45.89 0 0 -423.65 45.89 0 0 423.65zm324.14 0l-45.79 0 0 -45.31 -1.14 0c-18.98,34.72 -48.46,51.99 -88.33,51.99 -68.21,0 -102.26,-40.54 -102.26,-121.82l0 -171.04 45.5 0 0 163.79c0,60.38 23.18,90.52 69.35,90.52 22.33,0 40.73,-8.2 55.24,-24.71 14.4,-16.5 21.65,-38.06 21.65,-64.77l0 -164.83 45.79 0 0 286.18zm225.32 -2.77c-10.78,5.91 -25.09,8.87 -42.73,8.87 -50.18,0 -75.17,-27.95 -75.17,-83.85l0 -169.32 -49.22 0 0 -39.11 49.22 0 0 -69.83 45.79 -14.88 0 84.71 72.12 0 0 39.11 -72.12 0 0 161.31c0,19.17 3.24,32.81 9.82,41.01 6.49,8.21 17.27,12.31 32.44,12.31 11.54,0 21.46,-3.15 29.85,-9.55l0 39.21zm84.62 -356.11c-8.11,0 -15.17,-2.77 -20.89,-8.39 -5.81,-5.53 -8.68,-12.59 -8.68,-21.18 0,-8.58 2.87,-15.74 8.68,-21.36 5.72,-5.72 12.78,-8.59 20.89,-8.59 8.39,0 15.55,2.87 21.46,8.59 5.82,5.62 8.78,12.78 8.78,21.36 0,8.2 -2.96,15.17 -8.78,20.89 -5.91,5.82 -13.07,8.68 -21.46,8.68zm22.42 358.87l-45.89 0 0 -286.18 45.89 0 0 286.18zm212.35 6.68c-42.27,0 -76.03,-13.36 -101.31,-40.07 -25.18,-26.71 -37.87,-62.19 -37.87,-106.36 0,-48.08 13.16,-85.57 39.4,-112.66 26.33,-27 61.82,-40.44 106.55,-40.44 42.64,0 75.93,13.07 99.88,39.4 23.94,26.23 35.87,62.67 35.87,109.22 0,45.7 -12.88,82.23 -38.63,109.71 -25.85,27.47 -60.48,41.21 -103.88,41.21zm3.34 -261c-29.38,0 -52.66,10.02 -69.83,30.05 -17.17,20.03 -25.75,47.6 -25.75,82.9 0,33.86 8.68,60.57 26.04,80.13 17.36,19.55 40.54,29.38 69.54,29.38 29.66,0 52.47,-9.64 68.4,-28.81 15.94,-19.17 23.85,-46.46 23.85,-81.84 0,-35.78 -7.91,-63.34 -23.85,-82.71 -15.93,-19.46 -38.73,-29.1 -68.4,-29.1zm450.06 254.32l-45.88 0 0 -163.22c0,-60.76 -22.14,-91.1 -66.49,-91.1 -22.89,0 -41.88,8.59 -56.85,25.85 -15.08,17.27 -22.52,39.02 -22.52,65.25l0 163.22 -45.89 0 0 -286.18 45.89 0 0 47.5 1.14 0c21.56,-36.15 52.85,-54.18 93.87,-54.18 31.29,0 55.23,10.1 71.83,30.33 16.59,20.13 24.9,49.41 24.9,87.57l0 174.96zm69.06 -10.3l0 -49.22c24.9,18.42 52.47,27.66 82.42,27.66 40.26,0 60.38,-13.45 60.38,-40.26 0,-7.63 -1.72,-14.12 -5.16,-19.36 -3.52,-5.35 -8.1,-10.01 -14.02,-14.12 -5.82,-4.1 -12.78,-7.81 -20.7,-11.06 -7.91,-3.24 -16.4,-6.68 -25.56,-10.21 -12.69,-5.06 -23.75,-10.1 -33.39,-15.26 -9.55,-5.06 -17.56,-10.87 -24.04,-17.26 -6.39,-6.49 -11.26,-13.74 -14.5,-21.95 -3.24,-8.2 -4.87,-17.84 -4.87,-28.81 0,-13.45 3.06,-25.27 9.16,-35.68 6.2,-10.3 14.4,-18.98 24.62,-25.94 10.3,-6.97 21.94,-12.31 35.1,-15.84 13.07,-3.53 26.72,-5.25 40.64,-5.25 24.8,0 46.93,4.29 66.49,12.78l0 46.46c-20.98,-13.84 -45.21,-20.7 -72.59,-20.7 -8.59,0 -16.31,0.96 -23.28,2.96 -6.87,1.91 -12.78,4.68 -17.74,8.21 -4.87,3.52 -8.68,7.81 -11.45,12.68 -2.68,4.96 -4.01,10.4 -4.01,16.4 0,7.45 1.33,13.65 4.01,18.7 2.77,5.06 6.68,9.54 11.93,13.45 5.15,3.91 11.54,7.44 18.98,10.59 7.44,3.15 15.93,6.58 25.46,10.3 12.59,4.86 24.04,9.82 34.06,14.97 10.01,5.16 18.6,10.88 25.75,17.36 7.06,6.39 12.49,13.84 16.31,22.23 3.81,8.4 5.72,18.32 5.72,29.86 0,14.21 -3.15,26.52 -9.35,36.91 -6.3,10.4 -14.6,19.08 -25,25.95 -10.49,6.97 -22.52,12.02 -36.06,15.45 -13.64,3.34 -27.85,4.97 -42.82,4.97 -29.38,0 -54.95,-5.63 -76.51,-16.98z"/>
  <path class="fil0" d="M3682.29 1335.26c0,-354.75 0,-801.6 -516.32,-801.6 -185.61,0 -435.33,184.2 -435.33,184.2l74.24 266.07 57.37 3.41c0,-156.91 124.86,-320.65 293.59,-320.65 161.99,0 219.35,139.86 232.85,419.57 -280.09,13.64 -691.79,150.09 -691.79,518.48 0,214.9 114.74,361.58 357.7,361.58 161.99,0 269.98,-78.46 340.85,-184.2l23.62 160.32 435.33 0 27 -54.58c-145.1,0 -199.1,-119.39 -199.1,-266.07l0 -286.53zm-492.7 501.43c-97.86,0 -168.73,-78.46 -168.73,-252.42 0,-211.49 128.24,-385.45 371.21,-405.92 0,27.29 3.37,54.58 3.37,85.28l0 115.98c0,330.88 -97.86,457.09 -205.86,457.09zm2082.14 -740.21c0,-371.81 -165.36,-562.83 -452.2,-562.83 -195.72,0 -330.7,95.51 -418.44,228.54l-23.62 -204.67 -435.33 0 -26.99 54.58c145.1,0 199.1,119.39 199.1,269.47l0 740.2c0,146.68 -53.99,266.07 -199.1,266.07l26.99 54.58 634.43 0 27 -54.58c-148.48,0 -202.48,-119.39 -202.48,-266.07l0 -358.16c3.37,-327.46 148.48,-596.94 337.46,-596.94 168.74,0 242.97,191.03 242.97,532.13l0 422.97c0,146.68 -53.99,266.07 -199.1,266.07l26.99 54.58 634.43 0 27 -54.58c-148.48,0 -199.1,-119.39 -199.1,-266.07l0 -525.3zm1521.95 -538.95l-462.31 0 -27 54.58c145.1,0 199.1,119.39 199.1,269.47l0 463.9c0,259.24 -131.61,491.2 -320.58,491.2 -185.61,0 -256.48,-194.44 -256.48,-535.54l0 -743.61 -462.31 0 -27 54.58c145.1,0 199.1,119.39 199.1,269.47l0 521.9c0,371.81 165.36,562.83 448.83,562.83 199.1,0 334.08,-92.1 418.44,-228.54l27.01 204.67 435.32 0 27.01 -54.58c-145.11,0 -199.11,-119.39 -199.11,-266.07l0 -1064.25zm1606.33 0l-479.21 0 -27 54.58c111.36,0 175.48,71.63 175.48,167.14 0,34.11 -6.74,68.22 -20.24,102.33l-266.59 695.86 -253.11 -695.86c-13.48,-37.52 -20.24,-75.05 -20.24,-105.75 0,-98.92 60.74,-163.73 172.1,-163.73l-27 -54.58 -634.43 0 -26.99 54.58c145.1,0 178.85,122.79 232.84,269.47l415.08 1084.72 141.73 0 408.32 -1084.72c57.37,-146.68 87.74,-269.47 232.85,-269.47l-23.62 -54.58zm1036 -23.88c-195.73,0 -303.72,95.51 -391.46,228.54l-27.01 -204.67 -435.32 0 -23.62 54.58c145.1,0 199.1,119.39 199.1,269.47l0 740.2c0,146.68 -54,266.07 -199.1,266.07l23.62 54.58 637.79 0 23.62 -54.58c-145.1,0 -199.1,-119.39 -199.1,-266.07l0 -358.16c3.37,-327.46 121.48,-596.94 317.21,-596.94 175.48,0 212.61,136.45 212.61,293.36l60.73 0 84.37 -310.41c0,0 -107.99,-115.97 -283.46,-115.97zm1899.91 156.9l0 -133.02 -253.1 0 0 -494.61 -53.99 0c0,173.97 -114.74,494.61 -276.71,494.61l-384.72 0 0 -494.61 -50.61 0c0,173.97 -118.12,494.61 -276.73,494.61l-185.59 0 0 133.02 226.1 0 0 818.66c0,197.84 74.24,433.21 421.82,433.21l91.11 0 27 -54.58c-158.61,0 -253.1,-139.86 -253.1,-269.47l0 -927.82 425.2 0 0 818.66c0,197.84 77.62,433.21 425.2,433.21l91.12 0 27 -54.58c-161.98,0 -253.1,-139.86 -253.1,-269.47l0 -927.82 253.1 0zm624.3 -133.02l-462.32 0 -26.99 54.58c148.48,0 199.1,119.39 199.1,269.47l0 740.2c0,146.68 -50.61,266.07 -199.1,266.07l26.99 54.58 634.43 0 27 -54.58c-145.11,0 -199.1,-119.39 -199.1,-266.07l0 -1064.25z"/>
  <polygon class="fil1" points="9854.29,579.29 11335.91,579.29 11335.91,713.25 9854.29,713.25 "/>
  <path class="fil2" d="M11766.7 0c122.88,0 222.49,94.66 222.49,211.44 0,116.79 -99.62,211.44 -222.49,211.44 -122.88,0 -222.49,-94.65 -222.49,-211.44 0,-116.78 99.61,-211.44 222.49,-211.44z"/>
  <polyline class="fil3 str0" points="2330.33,1463.63 1272.91,2464.27 98.02,1295.52 1278.34,220.39 1956.46,895.63 "/>
  <polyline class="fil3 str1" points="1250.22,2071.44 476.29,1286.12 1261.56,564.3 2041.04,1359.5 1539.27,1849.45 "/>
  <path class="fil4" d="M1950.47 1008.12c-62.14,-3.47 -109.82,-56.65 -106.52,-118.76 3.33,-62.12 56.36,-109.68 118.5,-106.21 62.14,3.48 109.82,56.65 106.51,118.76 -3.31,62.13 -56.36,109.68 -118.49,106.21z"/>
  <path class="fil2" d="M1244.24 2183.92c-62.14,-3.47 -109.82,-56.65 -106.52,-118.76 3.32,-62.13 56.36,-109.67 118.5,-106.21 62.14,3.47 109.82,56.65 106.51,118.76 -3.31,62.13 -56.36,109.68 -118.49,106.21z"/>
  <path class="fil2" d="M1533.28 1961.94c-62.14,-3.47 -109.82,-56.65 -106.52,-118.76 3.32,-62.13 56.36,-109.67 118.5,-106.21 62.14,3.47 109.82,56.65 106.51,118.76 -3.31,62.13 -56.36,109.68 -118.49,106.21z"/>
  <path class="fil5" d="M2324.33 1576.12c-62.14,-3.47 -109.82,-56.65 -106.52,-118.76 3.32,-62.13 56.36,-109.67 118.5,-106.21 62.14,3.47 109.82,56.65 106.51,118.76 -3.31,62.13 -56.36,109.68 -118.49,106.21z"/>
  <path class="fil6 str2" d="M2248.6 1540.97c19.15,20.24 45.75,33.48 75.73,35.15 62.13,3.47 115.19,-44.08 118.49,-106.21 3.32,-62.11 -44.37,-115.29 -106.51,-118.76 -62.14,-3.46 -115.19,44.08 -118.5,106.21 -1.71,32.15 10.24,61.91 30.78,83.61z"/>
  <path class="fil1 str3" d="M2248.6 1540.97c19.15,20.24 45.75,33.48 75.73,35.15 62.13,3.47 115.19,-44.08 118.49,-106.21 3.32,-62.11 -44.37,-115.29 -106.51,-118.76 -62.14,-3.46 -115.19,44.08 -118.5,106.21 -1.71,32.15 10.24,61.91 30.78,83.61z"/>
 </g>
</svg>
